<svg width="41" height="40" viewBox="0 0 41 40" fill="none" xmlns="http://www.w3.org/2000/svg">
<path fill-rule="evenodd" clip-rule="evenodd" d="M34.0788 28.107V22.1978L27.2057 19.5368L30.8131 16.0353L26.0853 11.8438L24.7445 14.4093L24.7959 11.9428L18.8044 13.8551L18.9587 17.0703L19.9763 16.806L21.0342 28.151L25.2588 27.5308L25.2514 23.743L34.0788 28.107Z" fill="#0B0000"/>
<path fill-rule="evenodd" clip-rule="evenodd" d="M19.9324 14.6799L23.5729 13.5972L23.7969 17.3446L26.4786 13.5825L29.0978 16.0747L25.4353 19.9322L32.9733 22.9162V26.3479L24.2157 21.9692L24.2304 26.5572L21.9639 26.8655L20.9977 15.3883L19.9765 15.6526L19.9324 14.6799Z" fill="#F5DB13"/>
<path fill-rule="evenodd" clip-rule="evenodd" d="M19.1021 27.3716C17.7834 27.9295 16.3544 27.9295 15.1825 27.3679C14.0989 26.8467 13.3164 25.9071 12.9821 24.7143C12.3135 22.3396 13.7866 19.5391 16.2699 18.471C17.6034 17.9095 19.0434 17.9095 20.2226 18.4784C21.2952 18.9922 22.0666 19.9135 22.3936 21.0696C23.0768 23.4774 21.6001 26.3072 19.1021 27.3716Z" fill="#0B0000"/>
<path fill-rule="evenodd" clip-rule="evenodd" d="M21.4495 21.2172C20.9058 19.2939 18.7972 18.4057 16.7033 19.2939C14.6719 20.1675 13.4119 22.4504 13.9556 24.3737C14.5139 26.3593 16.6078 27.2439 18.7017 26.3593C20.7478 25.4858 22.0078 23.1845 21.4495 21.2172Z" fill="#F5DB13"/>
<path fill-rule="evenodd" clip-rule="evenodd" d="M20.0316 21.5848C20.0316 22.6051 19.1756 23.4089 18.0883 23.4089C17.0193 23.4089 16.1634 22.6051 16.1634 21.5848C16.1634 20.6268 17.0193 19.8193 18.1067 19.8193C19.1756 19.8193 20.0316 20.6231 20.0316 21.5848Z" fill="#0B0000"/>
<path fill-rule="evenodd" clip-rule="evenodd" d="M18.5805 19.8447C17.9303 19.8447 17.4013 20.3145 17.4013 20.8908C17.4013 21.467 17.9266 21.9368 18.5805 21.9368C19.2307 21.9368 19.7597 21.467 19.7597 20.8908C19.7597 20.3145 19.2307 19.8447 18.5805 19.8447Z" fill="#F5DB13"/>
<path fill-rule="evenodd" clip-rule="evenodd" d="M11.8249 23.8259C14.6609 21.7448 16.0127 18.5993 14.9878 16.2393C14.5397 15.2079 13.7535 14.3564 12.7911 13.8205C12.1152 13.3728 11.3107 13.0901 10.4658 12.9947C8.39391 12.6314 5.90696 13.0057 3.46042 14.0444C2.56042 14.4261 1.71919 14.8666 0.962453 15.3474L0 15.953L0.576737 16.9293L2.3694 19.9573C2.3694 19.9573 2.92042 20.8896 2.92409 20.8859L3.89757 20.4125L4.03349 20.3464L8.48942 30.2893L8.91922 31.2436L9.91841 30.9243L12.3319 30.1535L13.3899 29.8159L13.1107 28.7441L11.8249 23.8259Z" fill="black"/>
<path fill-rule="evenodd" clip-rule="evenodd" d="M13.9115 16.706C13.5552 15.8876 12.9417 15.2453 12.1409 14.7938C11.5605 14.4084 10.8883 14.2176 10.2601 14.1478C8.47477 13.8358 6.25231 14.1295 3.9123 15.1205C3.07842 15.4728 2.29964 15.8765 1.58331 16.3317L3.37597 19.3597C3.83516 19.1358 4.33108 18.8972 4.59924 18.7541L9.55478 29.8055L11.9683 29.0347L10.4805 23.3163C13.3348 21.5656 14.7748 18.6917 13.9115 16.706Z" fill="#F5DB13"/>
<path fill-rule="evenodd" clip-rule="evenodd" d="M39.2621 19.6127L37.565 18.0858L38.3989 17.2013L39.1483 16.4048L38.4576 15.557C37.1095 13.898 34.9531 13.2337 32.6903 13.7805C29.5421 14.5366 27.7678 17.2453 28.4694 20.2146C28.7523 21.4112 29.5017 22.4352 30.5854 23.0995C31.8784 23.896 33.5058 24.1125 35.1625 23.7125C36.9111 23.2904 38.1968 22.582 39.3246 21.4185L40.2283 20.4862L39.2621 19.6127Z" fill="#0B0000"/>
<path fill-rule="evenodd" clip-rule="evenodd" d="M36.654 18.8901C36.2279 19.393 35.7393 19.8518 34.8724 20.061C34.5822 20.1307 34.1891 20.1968 33.9393 20.1527L37.5871 16.2732C36.5585 15.0069 34.8687 14.4197 32.9548 14.8821C30.5744 15.4547 28.9654 17.4367 29.5605 19.9619C30.0381 21.9916 32.2862 23.2358 34.8944 22.6082C36.474 22.2265 37.5724 21.6172 38.5569 20.6005L36.654 18.8901Z" fill="#F5DB13"/>
<path fill-rule="evenodd" clip-rule="evenodd" d="M30.9564 13.1421L35.4234 8L37.8956 11.6887L32.2495 14.7204L30.9564 13.1421Z" fill="#0B0000"/>
<path fill-rule="evenodd" clip-rule="evenodd" d="M35.2325 9.63672L36.5402 11.4132L32.8043 13.263L32.5435 12.8703L35.2325 9.63672Z" fill="#F5DB13"/>
<path fill-rule="evenodd" clip-rule="evenodd" d="M32.4626 18.9491C32.1944 18.4609 32.2458 17.8333 32.6462 17.3966C33.032 16.9745 33.6197 16.8533 34.123 17.0479L32.4626 18.9491ZM32.6462 17.3966C32.2495 17.8333 32.1944 18.4609 32.4626 18.9491L34.123 17.0479C33.6197 16.8533 33.0283 16.9745 32.6462 17.3966ZM35.045 16.7616C34.1928 15.9871 32.8777 16.0495 32.1026 16.9011C31.3275 17.7526 31.3899 19.0666 32.2422 19.841C32.312 19.9071 32.3891 19.9621 32.4662 20.0135L35.1956 16.9084C35.1442 16.857 35.0965 16.8093 35.045 16.7616ZM32.4626 18.9491C32.1944 18.4609 32.2458 17.8333 32.6462 17.3966C33.032 16.9745 33.6197 16.8533 34.123 17.0479L32.4626 18.9491Z" fill="black"/>
<path fill-rule="evenodd" clip-rule="evenodd" d="M12.0343 18.5965C11.8213 17.4256 10.2968 16.7686 8.76862 17.5871L9.15066 18.9305L9.75311 20.9124L10.0286 21.8153C11.1747 21.0923 12.3282 20.2188 12.0343 18.5965ZM10.5172 20.3876C10.3519 19.8444 9.99556 18.6735 9.99556 18.6735C9.99923 18.6809 9.92209 18.4203 9.84127 18.1303C10.1645 18.0716 10.4731 18.101 10.7303 18.2258C10.8735 18.2955 11.1196 18.4533 11.1711 18.7543C11.2923 19.426 11.0609 19.9068 10.5172 20.3876Z" fill="black"/>
<path fill-rule="evenodd" clip-rule="evenodd" d="M12.6881 31.9595C12.6918 31.9705 12.6955 31.9778 12.6991 31.9888C12.6991 31.9925 12.7028 31.9962 12.7028 31.9998C12.6991 31.9852 12.6918 31.9742 12.6881 31.9595Z" fill="black"/>
</svg>
